<svg width="80" height="80" viewBox="0 0 80 80" fill="none" xmlns="http://www.w3.org/2000/svg">
<rect width="80" height="80" rx="30" fill="#ED5826"/>
<g clip-path="url(#clip0_149_6519)">
<g clip-path="url(#clip1_149_6519)">
<path d="M38.382 47.8679C38.382 46.6914 37.4261 45.662 36.1761 45.662H29.485C29.7055 45.1473 29.8526 44.412 29.9997 43.5296C30.735 43.6767 31.4702 43.6032 32.2791 43.3091C33.1614 42.9414 33.8967 42.3532 34.5585 41.6914C35.735 41.9855 40.4408 41.3973 40.735 37.6473C40.8085 36.5443 42.5732 35.9561 42.5732 35.9561C42.8673 35.8826 43.0144 35.5885 43.0879 35.3679C43.1614 35.1473 42.9408 34.7796 42.7202 34.6326C41.3967 33.8238 39.9997 33.4561 38.6761 33.4561C35.3673 33.4561 33.1614 35.9561 33.0879 39.8532C33.0879 40.2208 33.1614 40.5885 33.382 40.8826C32.4997 41.7649 31.3232 42.4267 30.0732 42.1326C30.0732 40.8826 29.9261 39.412 29.485 37.7943C29.1173 36.6179 28.9702 35.3679 28.8967 34.1914C29.485 34.1179 30.0732 33.8973 30.4408 33.4561C36.1026 27.5002 33.5291 20.7355 26.0291 18.7502C25.735 18.6767 25.4408 18.7502 25.2938 18.9708C25.1467 19.1914 25.0732 19.4855 25.2202 19.7796C25.2202 19.7796 26.5438 22.5002 25.2938 23.8973C23.0144 26.4708 23.5291 29.8532 26.6908 33.4561C26.9114 33.6767 27.132 33.8238 27.3526 33.9708C27.4261 35.3679 27.6467 36.8385 28.0144 38.2355C28.382 39.5591 28.5291 40.7355 28.5291 41.7649C27.2791 42.0591 26.1761 41.3973 25.2938 40.5149C25.5144 40.2208 25.5879 39.8532 25.5879 39.4855C25.5144 35.5885 23.3085 33.0885 19.9997 33.0885C18.6761 33.0885 17.2791 33.5296 15.9555 34.2649C15.7349 34.412 15.5879 34.7061 15.5879 35.0002C15.5879 35.2943 15.8085 35.5149 16.1026 35.5885C16.5438 35.7355 17.9408 36.3973 17.9408 37.2796C18.0879 39.7061 20.1467 41.2502 23.4555 41.3973H23.6026C23.7497 41.3973 23.9702 41.3973 24.1173 41.3238C25.2938 42.5738 26.7644 43.4561 28.4555 43.2355C28.3085 44.412 28.0144 45.2943 27.7938 45.7355H20.4408C19.2644 45.7355 18.2349 46.6914 18.2349 47.9414C18.2349 48.9708 18.9702 49.9267 19.9997 50.0738L22.0585 63.6767C22.132 64.0443 22.4261 64.3385 22.7938 64.3385C22.9408 64.3385 34.2644 64.3385 33.8232 64.3385C34.1908 64.3385 34.485 64.0443 34.5585 63.6767L36.6173 50.0738C37.6467 49.8532 38.382 48.9708 38.382 47.8679ZM38.7497 34.9267C39.4114 34.9267 40.0732 35.0738 40.735 35.2943C40.0732 35.8091 39.3379 36.5443 39.2644 37.5738C39.1173 39.412 37.4261 40.0738 35.735 40.2943C36.5438 39.1179 37.0585 38.0149 37.0585 37.9414C37.2055 37.5738 37.0585 37.1326 36.6908 36.9855C36.3232 36.8385 35.882 36.9855 35.735 37.3532C35.735 37.3532 35.2938 38.3091 34.632 39.412C34.8526 36.6179 36.3967 34.9267 38.7497 34.9267ZM19.5585 37.1326C19.4849 36.1032 18.7497 35.2943 18.0879 34.8532C18.7497 34.6326 19.4849 34.4855 20.0732 34.4855C22.4261 34.4855 23.9702 36.1767 24.1908 38.9708C23.4555 37.9414 23.0879 36.9855 23.0879 36.9855C22.9408 36.6179 22.4997 36.4708 22.132 36.6179C21.7644 36.7649 21.6173 37.2061 21.7644 37.5738C21.8379 37.6473 22.2791 38.7502 23.0879 39.9267C21.3967 39.7061 19.7055 39.0443 19.5585 37.1326ZM26.4702 24.7796C27.5732 23.5296 27.4261 21.7649 27.132 20.5885C32.4261 22.6473 33.9702 27.7208 29.485 32.4267C29.3379 32.5738 29.1173 32.6473 28.9702 32.7208C28.9702 29.5591 29.632 27.0591 29.632 27.0591C29.8526 26.1032 28.4555 25.7355 28.235 26.6914C28.1614 26.8385 27.6467 29.0443 27.5732 31.912C25.8085 29.8532 24.485 27.1326 26.4702 24.7796ZM19.7055 47.8679C19.7055 47.5002 19.9997 47.1326 20.4408 47.1326H36.1761C36.5438 47.1326 36.9114 47.4267 36.9114 47.8679C36.9114 48.3091 36.6173 48.6032 36.1761 48.6032C29.1173 48.6032 27.4997 48.6032 20.4408 48.6032C20.0732 48.6032 19.7055 48.3091 19.7055 47.8679ZM21.5438 50.0738H25.1467L25.735 62.7943H23.4555L21.5438 50.0738ZM27.2055 62.7943L26.5438 50.0738H29.9997L29.485 62.7943H27.2055ZM33.235 62.7943H30.9555L31.6173 50.0738H35.2202L33.235 62.7943Z" fill="white"/>
<path d="M61.6175 53.0131C61.691 52.2043 61.6175 52.2778 61.6175 46.7631C61.6175 46.3219 61.3233 46.0278 60.8822 46.0278C59.1175 46.0278 57.7204 45.7337 56.5439 45.1454C56.691 44.3366 56.838 43.5278 56.838 42.7925C56.838 42.4249 56.5439 42.0572 56.0292 42.0572V23.4543L58.1616 21.3955C59.191 20.4396 59.0439 19.4102 59.0439 18.3807C59.0439 16.9102 57.7939 15.6602 56.1763 15.6602H51.7645C50.2204 15.6602 48.8969 16.8366 48.8969 18.3807C48.8969 19.3366 48.7498 20.366 49.7792 21.3219L51.9116 23.4543V41.9837C51.3233 41.9837 51.1028 42.3513 51.1028 42.719C51.1028 43.3807 51.1763 44.116 51.3969 44.9249C50.2204 45.5131 48.8233 45.8072 47.0586 45.9543C46.691 45.9543 46.3969 46.3219 46.3969 46.6896V52.1307C46.3969 53.1602 46.5439 54.1896 46.838 55.219C44.9998 56.1749 44.8528 57.1307 42.4263 57.4249C39.7792 57.7925 39.2645 57.6455 38.2351 59.2631L38.1616 59.3366C37.5733 60.2925 36.838 61.1013 36.0292 61.7631C35.7351 61.9837 35.6616 62.3513 35.8822 62.719C36.0292 63.0131 36.3969 63.1602 36.7645 63.0131C37.7939 62.6455 39.338 63.8219 40.9557 63.6013C42.1322 63.4543 42.8675 62.719 43.6763 62.5719C43.9704 62.4984 44.191 62.4984 44.7792 62.4984C45.588 62.4984 46.3233 62.3513 46.838 62.4249C47.5733 62.6454 48.3086 63.5278 49.4116 63.8954C51.9851 64.7778 54.2645 61.9837 55.5145 62.2043C55.9557 62.2778 57.7204 63.7484 60.8822 63.8954C62.3528 63.969 63.1616 63.4543 63.3086 61.9837C63.3086 61.1013 66.3233 56.1749 61.6175 53.0131ZM55.3675 43.5278C55.2204 45.0719 54.4851 47.4249 53.9704 48.969C53.5292 47.4984 52.7204 44.9984 52.5733 43.5278H55.3675ZM53.1616 22.719L50.8086 20.366C50.2939 19.8513 50.3675 19.2631 50.3675 18.4543C50.3675 17.719 51.0292 17.2043 51.7645 17.2043H56.2498C56.9851 17.2043 57.6469 17.719 57.6469 18.4543C57.6469 19.2631 57.7939 19.8513 57.2057 20.366L54.8528 22.6455C54.7057 22.7925 54.6322 22.9396 54.6322 23.1602V42.1307H53.4557V23.2337C53.3822 23.0131 53.3086 22.866 53.1616 22.719ZM47.7939 52.2043V47.4984C49.338 47.3513 50.588 47.0572 51.691 46.5425C52.1322 48.3072 53.0145 50.9543 53.2351 51.7631C53.4557 52.4249 54.4116 52.4249 54.6322 51.7631C54.9263 50.8807 55.7351 48.3072 56.1763 46.6896C57.2792 47.2043 58.6028 47.4984 60.1469 47.5719V52.1307C59.6322 52.1307 59.191 52.4984 58.9704 52.6455C58.0145 53.6013 58.3822 52.866 57.1322 52.5719C55.9557 52.2778 54.4116 53.2337 53.4557 53.8955C50.441 55.8807 50.588 54.7043 48.5292 54.7778C48.4557 54.7778 48.3822 54.7778 48.2351 54.7778C47.941 53.969 47.7939 53.0866 47.7939 52.2043ZM61.9116 61.2484C61.4704 62.2778 62.1322 62.7925 60.8086 62.719C55.8086 62.4249 56.9851 59.5572 52.7204 61.9837C50.3675 63.3072 49.8528 62.9396 48.7498 62.1307C46.838 60.7337 46.3969 61.2484 44.7057 61.2484C43.4557 61.2484 43.2351 61.2484 41.838 61.9102C40.1469 62.719 40.2204 62.3513 38.1616 61.8366C39.8528 59.8513 39.338 59.5572 40.6616 59.3366C43.8969 58.8954 44.1175 58.969 46.1763 57.4984C50.1469 54.6307 49.2645 58.4543 54.1175 55.219C57.6469 52.866 56.4704 54.9249 58.4557 54.7043C59.2645 54.6307 59.7057 53.969 59.9998 53.7484C60.588 54.5572 64.4851 55.366 61.9116 61.2484Z" fill="white"/>
</g>
</g>
<defs>
<clipPath id="clip0_149_6519">
<rect width="50" height="50" fill="white" transform="translate(15 15)"/>
</clipPath>
<clipPath id="clip1_149_6519">
<rect width="50" height="50" fill="white" transform="translate(15 15)"/>
</clipPath>
</defs>
</svg>
