<svg width="80" height="80" viewBox="0 0 80 80" fill="none" xmlns="http://www.w3.org/2000/svg">
<rect width="80" height="80" rx="30" fill="#ED5826"/>
<g clip-path="url(#clip0_149_6473)">
<g clip-path="url(#clip1_149_6473)">
<path d="M59.1912 23.5296C58.8971 20.8826 57.5736 18.4561 55.2941 16.6914C53.6765 15.4414 51.3236 15.4414 49.7059 16.6914C47.4265 18.4561 46.0294 20.8826 45.8089 23.5296L44.5589 36.6179C44.4853 37.2061 44.7059 37.8679 45.1471 38.3091C45.5883 38.7502 46.1765 39.0443 46.7647 39.0443C46.9853 39.0443 52.0589 39.0443 51.7647 39.0443V40.5885C50.9559 40.8091 50.2941 41.5443 50.2941 42.5738L48.8236 60.1473C48.8236 62.8679 50.6618 64.3385 52.5736 64.3385C54.4853 64.3385 56.3236 62.8679 56.3236 60.0738L54.853 42.6473C54.853 41.5443 54.1912 40.8826 53.3824 40.5885V39.0443C53.5294 39.0443 58.75 39.0443 58.3824 39.0443C58.9706 39.0443 59.6324 38.7502 60 38.3091C60.3677 37.8679 60.5883 37.2061 60.5883 36.6179L59.1912 23.5296ZM54.7059 60.0738C54.7059 61.912 53.603 62.7943 52.4265 62.7943C51.25 62.7943 50.1471 61.9855 50.1471 60.1473L51.6177 42.5738C51.6177 41.912 52.2059 41.912 52.353 41.912C52.5 41.912 53.0883 41.912 53.0883 42.6473L54.7059 60.0738ZM51.1765 37.5002C51.3971 36.6179 52.0589 35.7355 52.5 35.1473C52.9412 35.7355 53.5294 36.6179 53.75 37.5002H51.1765ZM58.75 37.2796C58.603 37.4267 58.3824 37.5002 58.2353 37.5002H55.2206C54.853 35.4414 53.0147 33.6767 52.9412 33.5296C52.6471 33.2355 52.2059 33.2355 51.9118 33.5296C51.8383 33.6032 50 35.3679 49.6324 37.5002H46.6177C46.3971 37.5002 46.25 37.4267 46.103 37.2796C45.9559 37.1326 45.8824 36.912 45.8824 36.6914L47.1324 23.6032C47.353 21.3238 48.5294 19.2649 50.4412 17.7943C53.4559 15.4414 57.2059 19.8532 57.5736 23.6032L58.8236 36.6914C58.9706 36.912 58.8971 37.1326 58.75 37.2796Z" fill="white"/>
<path d="M40.3672 16.6164C40.4407 16.2487 40.1466 15.8075 39.779 15.734C39.4113 15.6605 38.9701 15.9546 38.8966 16.3222C38.8231 16.6899 37.3525 24.9252 39.5584 29.2634C40.5878 31.2487 40.1466 34.4105 38.529 36.4693C37.5731 37.7193 35.8819 38.9693 33.0143 38.5281C32.5731 37.2046 31.6907 36.0281 31.2496 35.5869V17.5722C31.2496 17.1311 30.9554 16.8369 30.5143 16.8369C30.0731 16.8369 29.779 17.1311 29.779 17.5722V35.5869C29.3378 36.0281 28.3819 37.2046 28.0143 38.5281C25.1466 38.9693 23.4554 37.6458 22.4996 36.4693C20.9554 34.4105 20.4407 31.3222 21.4701 29.2634C23.676 24.8516 22.2054 16.6164 22.1319 16.3222C22.1319 15.9546 21.7643 15.6605 21.3966 15.734C20.9554 15.8075 20.7349 16.1752 20.8084 16.6164C20.8084 16.6899 22.2054 24.7046 20.2937 28.6752C19.0437 31.1752 19.5584 34.9252 21.4701 37.4252C23.0143 39.4105 25.2937 40.4399 27.9407 40.0722C28.0143 40.3664 28.3084 40.5134 28.6025 40.5134H29.8525V41.9105C29.1172 42.2046 28.4554 42.7928 28.4554 43.8222L27.0584 60.2928C27.0584 62.8664 28.8231 64.2634 30.5878 64.2634C32.3525 64.2634 34.1172 62.8664 34.1172 60.2193L32.7201 43.8958C32.7201 42.8664 32.0584 42.2046 31.3231 41.9105V40.5134H32.5731C32.8672 40.5134 33.1613 40.2928 33.2349 40.0722C35.8819 40.3664 38.1613 39.4105 39.7054 37.3516C41.6172 34.8516 42.1319 31.1016 40.8819 28.6016C38.9701 24.7046 40.3672 16.6899 40.3672 16.6164ZM32.6466 60.2928C32.6466 62.0575 31.6172 62.7928 30.5878 62.7928C29.5584 62.7928 28.529 61.984 28.529 60.3664L29.926 43.8958C29.926 43.3075 30.4407 43.3075 30.5878 43.3075C30.7349 43.3075 31.2496 43.3811 31.2496 43.9693L32.6466 60.2928ZM29.4113 39.0428C29.6319 38.234 30.1466 37.4987 30.5878 36.984C30.9554 37.4987 31.5437 38.234 31.7643 39.0428H29.4113Z" fill="white"/>
</g>
</g>
<defs>
<clipPath id="clip0_149_6473">
<rect width="50" height="50" fill="white" transform="translate(15 15)"/>
</clipPath>
<clipPath id="clip1_149_6473">
<rect width="50" height="50" fill="white" transform="translate(15 15)"/>
</clipPath>
</defs>
</svg>
