<svg width="80" height="80" viewBox="0 0 80 80" fill="none" xmlns="http://www.w3.org/2000/svg">
<rect width="80" height="80" rx="30" fill="#ED5826"/>
<g clip-path="url(#clip0_149_6490)">
<g clip-path="url(#clip1_149_6490)">
<path d="M47.9408 52.5032C48.6025 51.5473 48.4555 50.2973 47.7202 49.4885L32.4261 34.1944C31.3231 33.0915 29.5584 33.0915 28.4555 34.1944C28.0878 34.562 27.8672 34.9297 27.7937 35.3709L27.4261 35.0032C26.3231 33.9003 24.5584 33.9003 23.4555 35.0032C23.1614 35.2973 22.8672 35.7385 22.7937 36.1797L22.2055 35.5915C20.9555 34.3415 18.8967 34.562 17.9408 36.0326C17.3525 36.915 17.3525 38.0915 17.8672 39.0473C17.4261 39.1944 16.9849 39.415 16.6172 39.7826C15.5143 40.8856 15.5143 42.6503 16.6172 43.7532L27.4261 54.562H21.4702C19.7055 54.562 18.382 55.9591 18.3084 57.6503C18.2349 59.4885 19.779 60.9591 21.6172 60.9591H33.8231L35.1467 62.2826C35.882 63.0179 37.0584 63.2385 38.0143 62.6503L41.3231 64.3415C41.6172 64.4885 41.9849 64.415 42.2055 64.1944L49.632 56.7679C49.8525 56.5473 49.9261 56.1797 49.779 55.8856L47.9408 52.5032ZM36.1025 61.1062L34.5584 59.562C34.4114 59.415 34.2643 59.3414 34.0437 59.3414H21.5437C20.5878 59.3414 19.7055 58.5326 19.7055 57.5767C19.7055 56.6209 20.5143 55.9591 21.3967 55.9591H29.1172C29.4114 55.9591 29.7055 55.812 29.779 55.5179C29.9261 55.2238 29.8525 54.9297 29.6319 54.7091L17.5731 42.5767C17.0584 42.062 17.0584 41.2532 17.5731 40.7385C18.0878 40.2238 18.8967 40.2238 19.4114 40.7385L28.6761 50.0032C28.9702 50.2973 29.4114 50.2973 29.7055 50.0032C29.9996 49.7091 29.9996 49.2679 29.7055 48.9738C26.9114 46.1062 21.7643 40.9591 19.3378 38.4591C18.8967 38.0179 18.7496 37.2826 19.1172 36.7679C19.5584 36.0326 20.5878 35.9591 21.1761 36.5473C23.2349 38.6062 28.9702 44.3415 31.6908 47.062C31.9849 47.3562 32.4261 47.3562 32.7202 47.062C33.0143 46.7679 33.0143 46.3267 32.7202 46.0326L24.4849 37.8709C23.9702 37.3562 23.9702 36.5473 24.4849 36.0326C24.9996 35.5179 25.882 35.5179 26.3231 36.0326L34.4849 44.1944C34.779 44.4885 35.2202 44.4885 35.5143 44.1944C35.8084 43.9003 35.8084 43.4591 35.5143 43.165L29.5584 37.062C29.0437 36.5473 29.0437 35.7385 29.5584 35.2238C30.0731 34.7091 30.8819 34.7091 31.3967 35.2238L46.6908 50.5179C47.0584 50.8856 47.0584 51.4738 46.6908 51.7679C43.3819 55.0767 40.9555 57.5032 37.3525 61.1062C37.0584 61.4003 36.4702 61.4003 36.1025 61.1062ZM41.4702 62.6503L39.1172 61.4738L46.9114 53.6797L48.0878 56.0326L41.4702 62.6503Z" fill="white"/>
<path d="M64.1911 41.2514L62.4999 37.9426C63.0146 37.0602 62.9411 35.8102 62.1322 35.0749L60.8087 33.7514V21.472C60.8087 19.7073 59.3381 18.1631 57.6469 18.1631H57.5734C56.7646 18.1631 56.0293 18.5308 55.4411 19.119C54.8528 19.7073 54.4852 20.5161 54.4852 21.3984V27.3543L43.6028 16.5455C42.5734 15.5161 40.7352 15.5161 39.6322 16.5455C39.2646 16.9131 39.044 17.3543 38.8969 17.7955C37.9411 17.2808 36.7646 17.2808 35.8822 17.869C34.4852 18.8249 34.1911 20.8837 35.4411 22.1337L36.0293 22.722C35.5881 22.869 35.2205 23.0896 34.8528 23.3837C33.7499 24.4867 33.7499 26.2514 34.8528 27.3543L35.2205 27.722C34.7793 27.869 34.4116 28.0896 34.044 28.3837C32.9411 29.4867 32.9411 31.2514 34.044 32.3543L49.3381 47.6484C50.1469 48.4573 51.3969 48.6043 52.3528 47.869L55.5881 49.5602C55.8822 49.7073 56.2499 49.6337 56.4705 49.4131L63.8969 41.9867C64.2646 41.8396 64.3381 41.5455 64.1911 41.2514ZM50.5146 46.6926L35.2205 31.3984C34.7058 30.8837 34.7058 30.0749 35.2205 29.5602C35.7352 29.0455 36.544 29.0455 37.0587 29.5602L43.0881 35.5896C43.3822 35.8837 43.8234 35.8837 44.1175 35.5896C44.4116 35.2955 44.4116 34.8543 44.1175 34.5602C42.1322 32.5749 37.8675 28.3102 35.9558 26.3984C35.4411 25.8837 35.4411 25.0749 35.9558 24.5602C36.4705 24.0455 37.3528 24.0455 37.794 24.5602L46.0293 32.6484C46.3234 32.9426 46.7646 32.9426 47.0587 32.6484C47.3528 32.3543 47.3528 31.9131 47.0587 31.619C46.544 31.0308 37.2058 21.7661 36.544 21.1043C35.9558 20.5161 36.0293 19.5602 36.7646 19.0455C37.2793 18.6778 38.0146 18.8249 38.4558 19.2661C40.5881 21.3984 46.544 27.3543 48.8969 29.7073C49.1911 30.0014 49.6322 30.0014 49.9264 29.7073C50.2205 29.4131 50.2205 28.972 49.9264 28.6779L40.7352 19.4131C40.2205 18.8984 40.2205 18.0161 40.7352 17.5749C41.2499 17.0602 42.1322 17.0602 42.5734 17.5749L54.6322 29.6337C54.8528 29.8543 55.1469 29.9279 55.4411 29.7808C55.7352 29.6337 55.8822 29.4131 55.8822 29.119V21.3984C55.8822 20.9573 56.0293 20.5161 56.3969 20.222C56.6911 19.9278 57.1322 19.7073 57.5734 19.7073C58.5293 19.7073 59.2646 20.5161 59.2646 21.5455V34.0455C59.2646 34.2661 59.3381 34.4131 59.4852 34.5602L61.0293 36.1043C61.3969 36.472 61.3969 37.0602 61.0293 37.3543L51.7646 46.6926C51.4705 46.9867 50.8822 46.9867 50.5146 46.6926ZM55.9558 48.0896L53.6028 46.9131C54.3381 46.1779 60.5881 39.9279 61.3969 39.119L62.5734 41.472L55.9558 48.0896Z" fill="white"/>
</g>
</g>
<defs>
<clipPath id="clip0_149_6490">
<rect width="50" height="50" fill="white" transform="translate(15 15)"/>
</clipPath>
<clipPath id="clip1_149_6490">
<rect width="50" height="50" fill="white" transform="translate(15 15)"/>
</clipPath>
</defs>
</svg>
