<svg width="32" height="28" viewBox="0 0 32 28" fill="none" xmlns="http://www.w3.org/2000/svg">
<path d="M29 0C30.625 0 32 1.375 32 3V18C32 23.5625 27.5 28 22 28H21.5C20.625 28 20 27.375 20 26.5V23.5C20 22.6875 20.625 22 21.5 22H22C24.1875 22 26 20.25 26 18V14H21C19.3125 14 18 12.6875 18 11V3C18 1.375 19.3125 0 21 0H29ZM11 0C12.625 0 14 1.375 14 3V18C14 23.5625 9.5 28 4 28H3.5C2.625 28 2 27.375 2 26.5V23.5C2 22.6875 2.625 22 3.5 22H4C6.1875 22 8 20.25 8 18V14H3C1.3125 14 0 12.6875 0 11V3C0 1.375 1.3125 0 3 0H11Z" fill="#ED5826"/>
</svg>
